<?xml version="1.0" standalone="no"?>
<!DOCTYPE svg PUBLIC "-//W3C//DTD SVG 20010904//EN"
 "http://www.w3.org/TR/2001/REC-SVG-20010904/DTD/svg10.dtd">
<svg version="1.0" xmlns="http://www.w3.org/2000/svg"
 width="200.000000pt" height="116.000000pt" viewBox="0 0 200.000000 116.000000"
 preserveAspectRatio="xMidYMid meet">

<g transform="translate(0.000000,116.000000) scale(0.100000,-0.100000)"
fill="#000000" stroke="none">
<path d="M749 1051 c-22 -18 -24 -27 -27 -140 l-4 -121 -36 -25 c-20 -14 -48
-25 -63 -25 -26 0 -78 33 -153 97 -55 46 -97 45 -140 -2 -18 -19 -37 -35 -42
-35 -6 0 -21 -18 -33 -41 -18 -31 -24 -60 -27 -126 -3 -72 -9 -94 -36 -145
-17 -33 -41 -64 -53 -68 -18 -7 -23 -22 -33 -98 -18 -137 -21 -129 56 -165 53
-25 83 -32 145 -35 49 -3 83 0 90 7 14 14 64 14 72 1 8 -13 92 -13 100 0 9 15
47 12 69 -5 30 -23 105 -19 131 5 18 17 27 19 48 11 14 -5 28 -15 32 -20 4 -7
47 -11 109 -11 90 0 105 2 121 20 l18 20 22 -20 c24 -22 112 -29 132 -9 8 8
13 8 17 0 9 -14 133 -14 142 0 4 6 20 8 38 5 42 -8 204 34 288 74 147 69 195
152 152 260 -21 53 -44 63 -206 100 -138 31 -230 58 -309 92 -36 15 -46 24
-42 38 6 24 -14 35 -35 18 -26 -22 -53 -12 -46 17 7 29 -12 42 -34 21 -21 -18
-47 -6 -47 21 0 14 -8 17 -29 16 -42 -3 -65 12 -59 38 6 20 3 22 -26 16 -31
-6 -38 -2 -100 61 -36 37 -73 81 -81 97 -35 74 -76 92 -121 56z m82 -62 c11
-23 38 -60 60 -84 l39 -43 -45 -7 c-25 -3 -61 -13 -80 -21 l-35 -14 0 98 c0
54 3 102 7 105 15 16 34 4 54 -34z m-358 -209 c34 -28 74 -56 90 -63 28 -12
33 -22 18 -31 -7 -5 -226 85 -238 98 -1 1 4 12 13 24 23 33 49 27 117 -28z
m522 26 c19 -14 19 -15 1 -34 -18 -21 -15 -42 8 -42 7 0 21 9 30 19 15 16 22
18 37 8 16 -10 17 -14 4 -33 -21 -33 2 -50 31 -23 19 17 26 19 44 9 16 -9 19
-15 11 -23 -6 -6 -11 -17 -11 -24 0 -16 32 -17 47 -2 6 6 20 8 32 4 18 -5 19
-10 10 -27 -16 -30 9 -43 36 -19 23 21 45 17 45 -7 0 -17 -33 -87 -54 -115
-14 -18 -18 -17 -95 23 -72 38 -80 44 -70 61 30 56 -30 84 -176 84 -83 -1
-109 -5 -153 -24 -52 -24 -53 -24 -95 -5 -23 10 -44 19 -46 21 -18 13 137 118
213 145 62 21 125 23 151 4z m-620 -80 l40 -17 -49 -45 -49 -45 -28 27 c-23
22 -26 30 -18 56 12 43 28 59 48 49 9 -5 34 -16 56 -25z m225 -101 c107 -46
291 -118 409 -161 15 -5 -106 -98 -142 -110 -11 -3 -36 2 -57 11 l-39 17 21
29 c19 26 20 30 6 51 -21 32 -188 102 -219 93 -13 -4 -65 -31 -114 -61 -60
-36 -102 -54 -123 -54 -17 0 -32 3 -32 6 0 4 16 27 36 51 31 37 35 49 31 81
-4 34 -1 40 36 74 23 20 44 35 47 33 3 -1 66 -29 140 -60z m450 -11 c7 -7 -4
-24 -33 -52 l-42 -41 -98 36 c-53 20 -97 40 -97 44 0 26 245 38 270 13z m-736
-42 c11 -13 15 -26 10 -34 -20 -33 -90 -108 -101 -108 -17 0 -16 4 7 50 11 22
23 60 26 85 7 48 19 49 58 7z m1140 6 c64 -23 61 -38 -9 -38 -48 0 -102 -31
-115 -65 -5 -14 -14 -25 -19 -25 -22 0 -21 22 4 57 14 21 25 41 25 45 0 4 5
19 10 33 8 20 15 25 28 20 9 -4 43 -16 76 -27z m65 -283 c15 -16 12 -16 -44
-10 -33 4 -99 16 -147 26 -48 10 -120 19 -158 19 -47 0 -82 6 -103 17 -18 9
-45 19 -62 23 l-29 6 42 29 c23 17 44 38 48 48 7 21 -12 47 -34 47 -13 0 -13
2 1 18 16 18 27 13 243 -94 124 -61 234 -120 243 -129z m134 229 c81 -18 115
-33 82 -34 -11 -1 -74 -7 -140 -13 -152 -15 -154 -21 -53 -116 79 -75 89 -110
12 -42 -26 23 -81 58 -121 78 -40 20 -73 42 -73 49 0 27 43 54 84 54 23 0 59
9 81 19 50 24 43 24 128 5z m-968 -39 c75 -35 86 -48 52 -69 -11 -7 -26 -6
-52 7 -45 21 -112 22 -154 1 -22 -11 -44 -14 -68 -9 -19 3 -33 8 -32 10 14 13
155 95 165 95 6 0 46 -16 89 -35z m1162 -45 c18 -36 16 -84 -4 -108 -27 -31
-193 -59 -193 -32 0 5 -26 36 -58 68 l-57 59 105 12 c58 6 119 15 135 20 43
13 58 9 72 -19z m-1422 -57 c17 -10 8 -17 -76 -58 l-95 -48 -52 34 c-63 41
-67 66 -14 74 20 4 42 8 47 11 20 8 171 -2 190 -13z m310 -30 c103 -45 108
-46 151 -35 65 17 120 15 164 -8 29 -15 59 -20 117 -20 45 0 112 -9 158 -20
95 -24 296 -36 378 -22 31 5 57 7 57 5 0 -2 -25 -15 -56 -29 -85 -38 -202 -67
-245 -61 -22 3 -49 -1 -64 -9 -37 -19 -94 -18 -116 2 -17 15 -20 15 -43 0 -36
-23 -69 -20 -96 9 -28 30 -51 32 -75 5 -15 -17 -31 -20 -105 -20 -66 0 -91 4
-100 15 -7 8 -24 15 -37 15 -22 0 -24 3 -18 23 20 64 17 68 -90 116 l-100 45
-189 -98 c-184 -96 -190 -98 -225 -86 -63 20 -71 31 -63 78 l7 42 45 -30 c25
-16 55 -30 68 -30 24 0 161 66 257 124 33 20 72 36 87 36 15 0 75 -21 133 -47z
m18 -95 c15 -5 27 -11 27 -13 0 -1 -12 -23 -26 -49 -22 -40 -30 -46 -59 -46
-18 0 -38 7 -45 15 -17 20 -71 19 -108 -2 -29 -17 -31 -17 -50 0 -24 21 -90
22 -113 1 -10 -9 -30 -14 -46 -12 -23 2 -2 17 127 84 l154 82 56 -25 c30 -14
67 -29 83 -35z"/>
</g>
</svg>
