{
    "accessors": [
        {
            "bufferView": 2,
            "componentType": 5126,
            "count": 31187,
            "max": [5.405741214752197, 16.690046310424805, 2.804373025894165],
            "min": [
                -3.494029998779297, 12.180304527282715, -2.7636609077453613
            ],
            "type": "VEC3"
        },
        {
            "bufferView": 2,
            "byteOffset": 374244,
            "componentType": 5126,
            "count": 31187,
            "max": [0.9999722838401794, 0.999925434589386, 0.9999817609786987],
            "min": [
                -0.9998909831047058, -0.9999979734420776, -0.9998769164085388
            ],
            "type": "VEC3"
        },
        {
            "bufferView": 1,
            "componentType": 5126,
            "count": 31187,
            "max": [0.9999539852142334, 0.9933639764785767],
            "min": [1.9999999949504854e-6, 4.400000034365803e-5],
            "type": "VEC2"
        },
        {
            "bufferView": 0,
            "componentType": 5125,
            "count": 119997,
            "type": "SCALAR"
        }
    ],
    "asset": {
        "extras": {
            "author": "Przemek Gesicki - DigitWorlds (https://sketchfab.com/DigitWorlds)",
            "license": "CC-BY-NC-4.0 (http://creativecommons.org/licenses/by-nc/4.0/)",
            "source": "https://sketchfab.com/3d-models/shoe-sneaker-buffalo-by-digitworldscom-d5b3b2554d784fb2833281e875c42289",
            "title": "shoe sneaker Buffalo by DigitWorlds.com"
        },
        "generator": "Sketchfab-12.66.0",
        "version": "2.0"
    },
    "bufferViews": [
        {
            "buffer": 0,
            "byteLength": 479988,
            "name": "floatBufferViews",
            "target": 34963
        },
        {
            "buffer": 0,
            "byteLength": 249496,
            "byteOffset": 479988,
            "byteStride": 8,
            "name": "floatBufferViews",
            "target": 34962
        },
        {
            "buffer": 0,
            "byteLength": 748488,
            "byteOffset": 729484,
            "byteStride": 12,
            "name": "floatBufferViews",
            "target": 34962
        }
    ],
    "buffers": [
        {
            "byteLength": 1477972,
            "uri": "scene.bin"
        }
    ],
    "extensionsUsed": ["KHR_materials_unlit"],
    "images": [
        {
            "uri": "textures/buffalo_baseColor.jpeg"
        }
    ],
    "materials": [
        {
            "doubleSided": true,
            "extensions": {
                "KHR_materials_unlit": {}
            },
            "name": "buffalo",
            "pbrMetallicRoughness": {
                "baseColorTexture": {
                    "index": 0
                },
                "metallicFactor": 0.0
            }
        }
    ],
    "meshes": [
        {
            "name": "Object_0",
            "primitives": [
                {
                    "attributes": {
                        "NORMAL": 1,
                        "POSITION": 0,
                        "TEXCOORD_0": 2
                    },
                    "indices": 3,
                    "material": 0,
                    "mode": 4
                }
            ]
        }
    ],
    "nodes": [
        {
            "children": [1],
            "matrix": [
                0.9947465658187866, 0.07721201330423354, 0.06721276044845582,
                0.0, 0.09472884982824326, -0.44542351365089394,
                -0.8902945518493653, 0.0, -0.03880328685045242,
                0.8919844031333924, -0.450397729873657, 0.0,
                -1.3616164922714233, 6.3581624031066895, -1.638695955276488, 1.0
            ],
            "name": "Sketchfab_model"
        },
        {
            "children": [2],
            "name": "buffalo.obj.cleaner.materialmerger.gles"
        },
        {
            "mesh": 0,
            "name": "Object_2"
        }
    ],
    "samplers": [
        {
            "magFilter": 9729,
            "minFilter": 9987,
            "wrapS": 10497,
            "wrapT": 10497
        }
    ],
    "scene": 0,
    "scenes": [
        {
            "name": "Sketchfab_Scene",
            "nodes": [0]
        }
    ],
    "textures": [
        {
            "sampler": 0,
            "source": 0
        }
    ]
}
